<svg xmlns="http://www.w3.org/2000/svg" width="24" height="24" viewBox="0 0 24 24" fill="none">
  <path d="M4 6.78182C4 6.04403 4.29308 5.33647 4.81478 4.81478C5.33647 4.29308 6.04403 4 6.78182 4H17.2909C18.0287 4 18.7363 4.29308 19.258 4.81478C19.7796 5.33647 20.0727 6.04403 20.0727 6.78182V12.2169C19.6152 11.807 19.093 11.4757 18.5273 11.2364V6.78182C18.5273 6.45391 18.397 6.13944 18.1651 5.90758C17.9333 5.67571 17.6188 5.54545 17.2909 5.54545H6.78182C6.45391 5.54545 6.13944 5.67571 5.90758 5.90758C5.67571 6.13944 5.54545 6.45391 5.54545 6.78182V17.2909C5.54545 17.6188 5.67571 17.9333 5.90758 18.1651C6.13944 18.397 6.45391 18.5273 6.78182 18.5273H11.2364C11.4757 19.093 11.807 19.6152 12.2169 20.0727H6.78182C6.04403 20.0727 5.33647 19.7796 4.81478 19.258C4.29308 18.7363 4 18.0287 4 17.2909V6.78182ZM16.3636 21C17.5933 21 18.7726 20.5115 19.642 19.642C20.5115 18.7726 21 17.5933 21 16.3636C21 15.134 20.5115 13.9547 19.642 13.0852C18.7726 12.2157 17.5933 11.7273 16.3636 11.7273C15.134 11.7273 13.9547 12.2157 13.0852 13.0852C12.2157 13.9547 11.7273 15.134 11.7273 16.3636C11.7273 17.5933 12.2157 18.7726 13.0852 19.642C13.9547 20.5115 15.134 21 16.3636 21ZM16.9818 13.4273V15.7455H19.3C19.423 15.7455 19.5409 15.7943 19.6278 15.8813C19.7148 15.9682 19.7636 16.0861 19.7636 16.2091C19.7636 16.3321 19.7148 16.45 19.6278 16.5369C19.5409 16.6239 19.423 16.6727 19.3 16.6727H16.9818V18.9909C16.9818 19.1139 16.933 19.2318 16.846 19.3188C16.7591 19.4057 16.6411 19.4545 16.5182 19.4545C16.3952 19.4545 16.2773 19.4057 16.1903 19.3188C16.1034 19.2318 16.0545 19.1139 16.0545 18.9909V16.6727H13.7364C13.6134 16.6727 13.4955 16.6239 13.4085 16.5369C13.3216 16.45 13.2727 16.3321 13.2727 16.2091C13.2727 16.0861 13.3216 15.9682 13.4085 15.8813C13.4955 15.7943 13.6134 15.7455 13.7364 15.7455H16.0545V13.4273C16.0545 13.3043 16.1034 13.1864 16.1903 13.0994C16.2773 13.0125 16.3952 12.9636 16.5182 12.9636C16.6411 12.9636 16.7591 13.0125 16.846 13.0994C16.933 13.1864 16.9818 13.3043 16.9818 13.4273Z" fill="#2B1354"/>
</svg>