<svg xmlns="http://www.w3.org/2000/svg" width="214" height="245" viewBox="0 0 214 245" fill="none">
  <g filter="url(#filter0_d_43_281)">
    <path d="M84.2228 11.7831C89.3322 -0.0311956 106.754 2.11129 108.908 14.7826C116.726 4.55985 133.163 10.7425 132.178 23.5362C142.212 15.4559 156.679 25.3726 152.677 37.6153C164.374 32.1673 176.009 45.2671 169.175 56.1632C181.857 53.6534 189.983 69.1405 180.749 78.0777C193.676 78.6899 197.862 95.6461 186.72 102.135C199.094 105.808 199.094 123.254 186.72 126.865C197.862 133.354 193.676 150.31 180.749 150.922C190.044 159.859 181.857 175.347 169.175 172.837C176.009 183.733 164.374 196.833 152.677 191.385C156.679 203.627 142.274 213.483 132.178 205.464C133.163 218.258 116.726 224.44 108.908 214.217C106.754 226.889 89.3322 228.97 84.2228 217.217C79.1133 229.031 61.6918 226.889 59.5372 214.217C51.7191 224.44 35.2826 218.258 36.2676 205.464C26.2333 213.544 11.7667 203.627 15.7681 191.385C4.07173 196.833 -7.5631 183.733 -0.729944 172.837C-13.4113 175.347 -21.5372 159.859 -12.3032 150.922C-25.2308 150.31 -29.4169 133.354 -18.2745 126.865C-30.6481 123.192 -30.6481 105.746 -18.2745 102.135C-29.4169 95.5849 -25.2308 78.6287 -12.3032 78.0777C-21.5988 69.1405 -13.4113 53.6534 -0.729944 56.1632C-7.5631 45.2671 4.07173 32.1673 15.7681 37.6153C11.7667 25.3726 26.1717 15.5171 36.2676 23.5362C35.2826 10.7425 51.7191 4.55985 59.5372 14.7826C61.6303 2.11129 79.0517 0.0300171 84.2228 11.7831Z" fill="#41AEF0"/>
  </g>
  <path d="M28.4861 85.6919C48.5028 69.6901 59.828 67.7548 76.3189 69.1819L77.2944 77.0713C57.1025 78.8318 47.3729 81.3386 37.8246 97.5656C33.4982 94.5992 30.8616 90.6296 28.4861 85.6919Z" fill="#2B1354"/>
  <path d="M52.7037 128.863C41.2591 87.6407 84.7007 83.8024 96.1783 113.457L89.5061 114.145C75.0005 91.5001 52.0299 105.161 61.9 126.63C58.0665 124.014 55.4449 129.223 52.7037 128.863Z" fill="#2B1354"/>
  <path d="M107.603 110.247C103.424 67.7954 146.938 70.796 153.145 101.841L146.445 101.478C137.061 78.5771 111.027 86.7611 117.06 109.48C113.73 106.301 110.245 111.03 107.603 110.247Z" fill="#2B1354"/>
  <path d="M141.268 53.8248C116.854 51.6804 107.04 55.9522 95.1346 65.4435L98.8151 72.0191C115.363 63.1006 124.269 60.0812 140.743 67.7263C142.41 63.2389 142.211 58.8385 141.268 53.8248Z" fill="#2B1354"/>
  <defs>
    <filter id="filter0_d_43_281" x="-33.5547" y="0" width="247.555" height="245" filterUnits="userSpaceOnUse" color-interpolation-filters="sRGB">
      <feFlood flood-opacity="0" result="BackgroundImageFix"/>
      <feColorMatrix in="SourceAlpha" type="matrix" values="0 0 0 0 0 0 0 0 0 0 0 0 0 0 0 0 0 0 127 0" result="hardAlpha"/>
      <feOffset dx="6" dy="8"/>
      <feGaussianBlur stdDeviation="6"/>
      <feComposite in2="hardAlpha" operator="out"/>
      <feColorMatrix type="matrix" values="0 0 0 0 0 0 0 0 0 0 0 0 0 0 0 0 0 0 0.34 0"/>
      <feBlend mode="normal" in2="BackgroundImageFix" result="effect1_dropShadow_43_281"/>
      <feBlend mode="normal" in="SourceGraphic" in2="effect1_dropShadow_43_281" result="shape"/>
    </filter>
  </defs>
</svg>