<svg xmlns="http://www.w3.org/2000/svg" width="24" height="24" viewBox="0 0 24 24" fill="none">
  <path d="M10.4 6.56098H13.6C13.6 6.17285 13.4314 5.80063 13.1314 5.52619C12.8313 5.25174 12.4243 5.09756 12 5.09756C11.5757 5.09756 11.1687 5.25174 10.8686 5.52619C10.5686 5.80063 10.4 6.17285 10.4 6.56098ZM9.2 6.56098C9.2 6.22466 9.27242 5.89164 9.41314 5.58093C9.55385 5.27022 9.7601 4.9879 10.0201 4.75009C10.2801 4.51228 10.5888 4.32364 10.9285 4.19494C11.2682 4.06624 11.6323 4 12 4C12.3677 4 12.7318 4.06624 13.0715 4.19494C13.4112 4.32364 13.7199 4.51228 13.9799 4.75009C14.2399 4.9879 14.4461 5.27022 14.5869 5.58093C14.7276 5.89164 14.8 6.22466 14.8 6.56098H19.4C19.5591 6.56098 19.7117 6.61879 19.8243 6.72171C19.9368 6.82463 20 6.96421 20 7.10976C20 7.2553 19.9368 7.39489 19.8243 7.4978C19.7117 7.60072 19.5591 7.65854 19.4 7.65854H18.344L17.408 16.5202C17.3362 17.1993 16.9904 17.8295 16.4381 18.2879C15.8859 18.7464 15.1666 19.0003 14.4208 19H9.5792C8.83349 19.0001 8.11448 18.7461 7.56236 18.2877C7.01024 17.8292 6.66459 17.1991 6.5928 16.5202L5.656 7.65854H4.6C4.44087 7.65854 4.28826 7.60072 4.17574 7.4978C4.06321 7.39489 4 7.2553 4 7.10976C4 6.96421 4.06321 6.82463 4.17574 6.72171C4.28826 6.61879 4.44087 6.56098 4.6 6.56098H9.2ZM10.8 10.0366C10.8 9.89104 10.7368 9.75146 10.6243 9.64854C10.5117 9.54562 10.3591 9.4878 10.2 9.4878C10.0409 9.4878 9.88826 9.54562 9.77574 9.64854C9.66321 9.75146 9.6 9.89104 9.6 10.0366V15.5244C9.6 15.6699 9.66321 15.8095 9.77574 15.9124C9.88826 16.0154 10.0409 16.0732 10.2 16.0732C10.3591 16.0732 10.5117 16.0154 10.6243 15.9124C10.7368 15.8095 10.8 15.6699 10.8 15.5244V10.0366ZM13.8 9.4878C13.9591 9.4878 14.1117 9.54562 14.2243 9.64854C14.3368 9.75146 14.4 9.89104 14.4 10.0366V15.5244C14.4 15.6699 14.3368 15.8095 14.2243 15.9124C14.1117 16.0154 13.9591 16.0732 13.8 16.0732C13.6409 16.0732 13.4883 16.0154 13.3757 15.9124C13.2632 15.8095 13.2 15.6699 13.2 15.5244V10.0366C13.2 9.89104 13.2632 9.75146 13.3757 9.64854C13.4883 9.54562 13.6409 9.4878 13.8 9.4878ZM7.7872 16.4149C7.83035 16.8222 8.0378 17.2002 8.36909 17.4752C8.70039 17.7502 9.1318 17.9025 9.5792 17.9024H14.4208C14.8682 17.9025 15.2996 17.7502 15.6309 17.4752C15.9622 17.2002 16.1697 16.8222 16.2128 16.4149L17.1392 7.65854H6.8608L7.7872 16.4149Z" fill="#2B1354"/>
</svg>