<svg xmlns="http://www.w3.org/2000/svg" width="24" height="24" viewBox="0 0 24 24" fill="none">
  <g clip-path="url(#clip0_185_134)">
    <path d="M17.9999 8.4002H14.3999V1.2002H9.59993V8.4002H5.99993L11.9999 14.4002L17.9999 8.4002ZM23.2055 16.2386C22.9535 15.9698 21.2723 14.171 20.7923 13.7018C20.4562 13.379 20.0079 13.1992 19.5419 13.2002H17.4335L21.1103 16.793H16.8575C16.7996 16.7914 16.7424 16.8054 16.6917 16.8335C16.6411 16.8616 16.5989 16.9027 16.5695 16.9526L15.5903 19.2002H8.40953L7.43033 16.9526C7.40005 16.9035 7.35766 16.8631 7.30722 16.8351C7.25678 16.8071 7.19999 16.7926 7.14233 16.793H2.88953L6.56513 13.2002H4.45793C3.98153 13.2002 3.52673 13.391 3.20753 13.7018C2.72753 14.1722 1.04633 15.971 0.794328 16.2386C0.207528 16.8638 -0.115272 17.3618 0.0383283 17.9774L0.711528 21.6662C0.865128 22.283 1.54073 22.7894 2.21393 22.7894H21.7883C22.4615 22.7894 23.1371 22.283 23.2907 21.6662L23.9639 17.9774C24.1151 17.3618 23.7935 16.8638 23.2055 16.2386Z" fill="#2B1354"/>
  </g>
  <defs>
    <clipPath id="clip0_185_134">
      <rect width="24" height="24" fill="white"/>
    </clipPath>
  </defs>
</svg>