<svg xmlns="http://www.w3.org/2000/svg" width="20" height="20" viewBox="0 0 20 20" fill="none">
  <path d="M15.8197 7.18811C15.8865 7.12802 15.965 7.08105 16.0509 7.04987C16.1368 7.01868 16.2282 7.00391 16.3201 7.00638C16.4119 7.00886 16.5024 7.02853 16.5863 7.06428C16.6701 7.10004 16.7458 7.15117 16.8089 7.21476C16.872 7.27834 16.9214 7.35314 16.9541 7.43489C16.9869 7.51663 17.0024 7.60371 16.9998 7.69117C16.9972 7.77862 16.9765 7.86473 16.939 7.94458C16.9014 8.02443 16.8477 8.09646 16.7809 8.15655L10.4846 13.8179C10.3547 13.9349 10.1827 14 10.004 14C9.82524 14 9.65327 13.9349 9.52337 13.8179L3.22637 8.15654C3.15812 8.09685 3.103 8.02484 3.06423 7.9447C3.02545 7.86456 3.00379 7.77788 3.0005 7.6897C2.99721 7.60151 3.01236 7.51359 3.04506 7.43103C3.07776 7.34847 3.12737 7.27292 3.191 7.20876C3.25463 7.14461 3.33102 7.09313 3.41572 7.05732C3.50043 7.02151 3.59176 7.00208 3.68442 7.00016C3.77708 6.99824 3.86921 7.01386 3.95547 7.04613C4.04173 7.07839 4.1204 7.12666 4.18691 7.18811L10.004 12.4179L15.8197 7.18811Z" fill="#2B1354"/>
</svg>