<svg xmlns="http://www.w3.org/2000/svg" width="60" height="60" viewBox="0 0 60 60" fill="none">
  <circle opacity="0.1" cx="30" cy="30" r="30" fill="#2B1354"/>
  <g opacity="0.4">
    <path d="M39.97 31.52V31.48C41.21 30.38 42 28.78 42 27C42 23.69 39.31 21 36 21C35.74 21 35.48 21.02 35.22 21.06C34.701 20.1314 33.9436 19.358 33.026 18.8197C32.1084 18.2814 31.0638 17.9976 30 17.9976C28.9362 17.9976 27.8916 18.2814 26.974 18.8197C26.0564 19.358 25.299 20.1314 24.78 21.06C24.52 21.02 24.26 21 24 21C20.69 21 18 23.69 18 27C18 28.78 18.79 30.38 20.02 31.48V31.52C19.3862 32.0819 18.8785 32.7716 18.5303 33.5437C18.1821 34.3159 18.0014 35.153 18 36C18 39.31 20.69 42 24 42C25.39 42 26.67 41.52 27.69 40.72C28.43 40.9 29.2 41 30 41C30.8 41 31.57 40.9 32.31 40.72C33.33 41.52 34.61 42 36 42C39.31 42 42 39.31 42 36C42 34.22 41.21 32.62 39.97 31.52ZM30 39C25.59 39 22 35.41 22 31C22 27.28 24.56 24.15 28 23.26V23.31C28 26.65 30.72 29.37 34.06 29.37C35.32 29.37 36.51 28.98 37.51 28.28C37.82 29.14 38 30.05 38 31C38 35.41 34.41 39 30 39Z" fill="#2B1354"/>
    <path d="M27 33.25C27.6904 33.25 28.25 32.6904 28.25 32C28.25 31.3096 27.6904 30.75 27 30.75C26.3096 30.75 25.75 31.3096 25.75 32C25.75 32.6904 26.3096 33.25 27 33.25Z" fill="#2B1354"/>
    <path d="M33 33.25C33.6904 33.25 34.25 32.6904 34.25 32C34.25 31.3096 33.6904 30.75 33 30.75C32.3096 30.75 31.75 31.3096 31.75 32C31.75 32.6904 32.3096 33.25 33 33.25Z" fill="#2B1354"/>
  </g>
</svg>