<svg width="24" height="24" viewBox="0 0 24 24" fill="none" xmlns="http://www.w3.org/2000/svg">
<path d="M4.7998 4.80002C4.7998 4.1635 5.05266 3.55306 5.50275 3.10297C5.95284 2.65288 6.56329 2.40002 7.19981 2.40002H16.7998C17.4363 2.40002 18.0468 2.65288 18.4969 3.10297C18.9469 3.55306 19.1998 4.1635 19.1998 4.80002V18C19.1998 18.3183 19.0734 18.6235 18.8483 18.8485C18.6233 19.0736 18.3181 19.2 17.9998 19.2H5.9998C5.9998 19.5183 6.12623 19.8235 6.35128 20.0486C6.57632 20.2736 6.88155 20.4 7.19981 20.4H18.5998C18.7589 20.4 18.9115 20.4632 19.0241 20.5758C19.1366 20.6883 19.1998 20.8409 19.1998 21C19.1998 21.1592 19.1366 21.3118 19.0241 21.4243C18.9115 21.5368 18.7589 21.6 18.5998 21.6H7.19981C6.56329 21.6 5.95284 21.3472 5.50275 20.8971C5.05266 20.447 4.7998 19.8365 4.7998 19.2V4.80002ZM12.5446 6.34802C12.4964 6.24428 12.4196 6.15647 12.3232 6.09493C12.2268 6.0334 12.1148 6.0007 12.0004 6.0007C11.886 6.0007 11.774 6.0334 11.6776 6.09493C11.5812 6.15647 11.5044 6.24428 11.4562 6.34802L10.4698 8.47202L8.14421 8.75282C8.03058 8.76656 7.92326 8.8125 7.83489 8.88523C7.74653 8.95797 7.6808 9.05446 7.64548 9.16332C7.61016 9.27218 7.60672 9.38888 7.63555 9.49964C7.66438 9.6104 7.72429 9.7106 7.80821 9.78842L9.52421 11.382L9.07181 13.68C9.04979 13.7923 9.06033 13.9085 9.10219 14.015C9.14404 14.1215 9.21547 14.2138 9.30804 14.281C9.40062 14.3482 9.51048 14.3876 9.62468 14.3944C9.73888 14.4012 9.85266 14.3753 9.95261 14.3196L11.9998 13.182L14.0458 14.3196C14.1457 14.3753 14.2595 14.4012 14.3737 14.3944C14.4879 14.3876 14.5978 14.3482 14.6904 14.281C14.7829 14.2138 14.8544 14.1215 14.8962 14.015C14.9381 13.9085 14.9486 13.7923 14.9266 13.68L14.4766 11.382L16.1926 9.78842C16.2766 9.71052 16.3365 9.61022 16.3652 9.49937C16.394 9.38852 16.3905 9.27175 16.355 9.16285C16.3195 9.05395 16.2537 8.95748 16.1651 8.88482C16.0766 8.81216 15.9691 8.76636 15.8554 8.75282L13.531 8.47082L12.5446 6.34802ZM11.4166 9.27962L11.9998 8.02442L12.583 9.27962C12.6259 9.37222 12.6918 9.45233 12.7743 9.51238C12.8568 9.57244 12.9533 9.61045 13.0546 9.62282L14.4286 9.78842L13.4146 10.7304C13.3398 10.8 13.2839 10.8876 13.2524 10.9848C13.2209 11.0821 13.2148 11.1857 13.2346 11.286L13.501 12.6432L12.2914 11.9712C12.2022 11.9216 12.1019 11.8956 11.9998 11.8956C11.8978 11.8956 11.7974 11.9216 11.7082 11.9712L10.4986 12.6432L10.765 11.286C10.7848 11.1857 10.7787 11.0821 10.7472 10.9848C10.7157 10.8876 10.6598 10.8 10.585 10.7304L9.57221 9.78842L10.9438 9.62402C11.0451 9.61165 11.1416 9.57364 11.2241 9.51358C11.3066 9.45353 11.3725 9.37342 11.4154 9.28082" fill="#2B1354"/>
</svg>
