<svg xmlns="http://www.w3.org/2000/svg" width="74" height="74" viewBox="0 0 74 74" fill="none">
                        <circle cx="37" cy="37" r="37" fill="#C4CD24" />
                        <path fill-rule="evenodd" clip-rule="evenodd" d="M42.4548 24.2781C42.8277 22.5813 45.2412 22.5713 45.6261 24.2641L45.6462 24.3443L45.6823 24.5048C45.9045 25.4558 46.4017 26.3204 47.1118 26.9906C47.822 27.6608 48.7136 28.107 49.6755 28.2735C51.4415 28.5804 51.4415 31.1216 49.6755 31.4284C48.7082 31.5957 47.812 32.0457 47.1 32.7217C46.3879 33.3977 45.8918 34.2695 45.6742 35.2272L45.6261 35.4378C45.2412 37.1306 42.8277 37.1206 42.4548 35.4238L42.4147 35.2433C41.9857 33.2777 40.4101 31.7694 38.4316 31.4244C36.6675 31.1176 36.6675 28.5824 38.4316 28.2755C39.3959 28.1073 40.2889 27.6568 40.9975 26.981C41.7061 26.3052 42.1986 25.4345 42.4127 24.4787L42.4428 24.3463L42.4548 24.2781ZM26.5081 27.9345H35.3084C34.1657 30.0405 35.0778 33.1493 38.0427 33.6648C39.0169 33.8353 39.8107 34.5272 40.1194 35.4559H26.0069V47.49C26.0069 47.7668 26.2314 47.9915 26.5081 47.9915H44.5496C44.6826 47.9915 44.81 47.9386 44.904 47.8446C44.998 47.7506 45.0508 47.623 45.0508 47.49V38.8515C46.3418 38.5246 47.4764 37.5558 47.8452 35.9433L47.8933 35.7307C47.9326 35.5608 47.9877 35.3949 48.0577 35.2352V47.49C48.0577 48.4209 47.6881 49.3137 47.0302 49.972C46.3723 50.6302 45.48 51 44.5496 51H26.5081C25.5777 51 24.6854 50.6302 24.0275 49.972C23.3696 49.3137 23 48.4209 23 47.49V31.4445C23 29.505 24.5716 27.9345 26.5081 27.9345ZM28.4385 37.6341C28.5549 37.5176 28.693 37.4253 28.845 37.3622C28.9971 37.2992 29.16 37.2668 29.3246 37.2668C29.4891 37.2668 29.6521 37.2992 29.8041 37.3622C29.9561 37.4253 30.0943 37.5176 30.2106 37.6341L33.2175 40.6426C33.3339 40.759 33.4262 40.8972 33.4892 41.0493C33.5522 41.2014 33.5846 41.3645 33.5846 41.5291C33.5846 41.6938 33.5522 41.8568 33.4892 42.0089C33.4262 42.161 33.3339 42.2992 33.2175 42.4156L30.2106 45.4242C30.0943 45.5406 29.9561 45.6329 29.8041 45.6959C29.6521 45.759 29.4891 45.7914 29.3246 45.7914C29.16 45.7914 28.9971 45.759 28.845 45.6959C28.693 45.6329 28.5549 45.5406 28.4385 45.4242C28.3222 45.3078 28.2299 45.1695 28.1669 45.0174C28.1039 44.8653 28.0715 44.7023 28.0715 44.5377C28.0715 44.373 28.1039 44.21 28.1669 44.0579C28.2299 43.9058 28.3222 43.7676 28.4385 43.6511L30.5594 41.5331L28.4405 39.4091C28.3242 39.2927 28.2318 39.1545 28.1689 39.0024C28.1059 38.8503 28.0735 38.6872 28.0735 38.5226C28.0735 38.3579 28.1059 38.1949 28.1689 38.0428C28.2318 37.8907 28.3242 37.7525 28.4405 37.6361L28.4385 37.6341ZM34.0855 44.5377C34.0855 43.8457 34.6468 43.2841 35.3384 43.2841H38.3454C38.6776 43.2841 38.9963 43.4162 39.2313 43.6513C39.4662 43.8863 39.5982 44.2052 39.5982 44.5377C39.5982 44.8701 39.4662 45.189 39.2313 45.4241C38.9963 45.6591 38.6776 45.7912 38.3454 45.7912H35.3384C35.0061 45.7912 34.6875 45.6591 34.4525 45.4241C34.2175 45.189 34.0855 44.8701 34.0855 44.5377Z" fill="#2B1354" />
                    </svg>