<svg width="180" height="30" viewBox="0 0 180 30" fill="none" xmlns="http://www.w3.org/2000/svg">
<path d="M171.576 9.89109H179.636L172.159 19.1107L180 29.4737H170.903L164.99 20.2359L164.372 20.8711V29.4737H156.512V1.59708L164.372 1.59708V18.6207L171.576 9.89109Z" fill="white"/>
<path d="M142.356 29.9999C140.925 29.9999 139.651 29.8669 138.535 29.6007C137.419 29.3345 136.443 28.9655 135.606 28.4936C134.769 28.0217 134.054 27.4652 133.459 26.8239C132.877 26.1705 132.404 25.4627 132.04 24.7005C131.676 23.9382 131.409 23.1336 131.24 22.2867C131.082 21.4397 131.003 20.5807 131.003 19.7096C131.003 18.8505 131.082 18.0036 131.24 17.1687C131.409 16.3218 131.676 15.5172 132.04 14.7549C132.404 13.9806 132.877 13.2728 133.459 12.6315C134.041 11.9782 134.751 11.4156 135.588 10.9437C136.437 10.4597 137.419 10.0846 138.535 9.81845C139.651 9.54017 140.925 9.40103 142.356 9.40103C143.787 9.40103 145.061 9.54017 146.177 9.81845C147.292 10.0846 148.269 10.4597 149.106 10.9437C149.955 11.4156 150.67 11.9782 151.253 12.6315C151.835 13.2728 152.308 13.9806 152.672 14.7549C153.036 15.5172 153.296 16.3218 153.454 17.1687C153.624 18.0036 153.709 18.8505 153.709 19.7096C153.709 20.5807 153.624 21.4397 153.454 22.2867C153.296 23.1336 153.036 23.9382 152.672 24.7005C152.308 25.4627 151.829 26.1705 151.234 26.8239C150.652 27.4652 149.943 28.0217 149.106 28.4936C148.269 28.9655 147.292 29.3345 146.177 29.6007C145.061 29.8669 143.787 29.9999 142.356 29.9999ZM138.863 19.7096C138.863 20.3629 138.923 21.0042 139.045 21.6333C139.166 22.2504 139.36 22.807 139.627 23.303C139.906 23.787 140.264 24.1802 140.7 24.4827C141.149 24.7731 141.701 24.9183 142.356 24.9183C143.011 24.9183 143.557 24.7731 143.993 24.4827C144.442 24.1802 144.8 23.787 145.067 23.303C145.346 22.807 145.546 22.2504 145.667 21.6333C145.788 21.0042 145.849 20.3629 145.849 19.7096C145.849 19.0562 145.788 18.421 145.667 17.8039C145.546 17.1748 145.346 16.6182 145.067 16.1342C144.8 15.6382 144.442 15.2389 143.993 14.9364C143.557 14.6339 143.011 14.4827 142.356 14.4827C141.701 14.4827 141.149 14.6339 140.7 14.9364C140.264 15.2389 139.906 15.6382 139.627 16.1342C139.36 16.6182 139.166 17.1748 139.045 17.8039C138.923 18.421 138.863 19.0562 138.863 19.7096Z" fill="white"/>
<path d="M118.23 29.9999C116.798 29.9999 115.525 29.8669 114.409 29.6007C113.293 29.3345 112.317 28.9655 111.48 28.4936C110.643 28.0217 109.927 27.4652 109.333 26.8239C108.751 26.1705 108.278 25.4627 107.914 24.7005C107.55 23.9382 107.283 23.1336 107.113 22.2867C106.956 21.4397 106.877 20.5807 106.877 19.7096C106.877 18.8505 106.956 18.0036 107.113 17.1687C107.283 16.3218 107.55 15.5172 107.914 14.7549C108.278 13.9806 108.751 13.2728 109.333 12.6315C109.915 11.9782 110.625 11.4156 111.462 10.9437C112.311 10.4597 113.293 10.0846 114.409 9.81845C115.525 9.54017 116.798 9.40103 118.23 9.40103C119.661 9.40103 120.934 9.54017 122.05 9.81845C123.166 10.0846 124.143 10.4597 124.98 10.9437C125.829 11.4156 126.544 11.9782 127.126 12.6315C127.709 13.2728 128.182 13.9806 128.545 14.7549C128.909 15.5172 129.17 16.3218 129.328 17.1687C129.498 18.0036 129.583 18.8505 129.583 19.7096C129.583 20.5807 129.498 21.4397 129.328 22.2867C129.17 23.1336 128.909 23.9382 128.545 24.7005C128.182 25.4627 127.702 26.1705 127.108 26.8239C126.526 27.4652 125.816 28.0217 124.98 28.4936C124.143 28.9655 123.166 29.3345 122.05 29.6007C120.934 29.8669 119.661 29.9999 118.23 29.9999ZM114.736 19.7096C114.736 20.3629 114.797 21.0042 114.918 21.6333C115.04 22.2504 115.234 22.807 115.501 23.303C115.78 23.787 116.137 24.1802 116.574 24.4827C117.023 24.7731 117.575 24.9183 118.23 24.9183C118.885 24.9183 119.43 24.7731 119.867 24.4827C120.316 24.1802 120.674 23.787 120.941 23.303C121.219 22.807 121.42 22.2504 121.541 21.6333C121.662 21.0042 121.723 20.3629 121.723 19.7096C121.723 19.0562 121.662 18.421 121.541 17.8039C121.42 17.1748 121.219 16.6182 120.941 16.1342C120.674 15.6382 120.316 15.2389 119.867 14.9364C119.43 14.6339 118.885 14.4827 118.23 14.4827C117.575 14.4827 117.023 14.6339 116.574 14.9364C116.137 15.2389 115.78 15.6382 115.501 16.1342C115.234 16.6182 115.04 17.1748 114.918 17.8039C114.797 18.421 114.736 19.0562 114.736 19.7096Z" fill="white"/>
<path d="M96.505 30C95.85 30 95.2011 29.9153 94.5582 29.7459C93.9154 29.5765 93.3029 29.3345 92.7207 29.0199C92.1506 28.6933 91.6291 28.3 91.156 27.8403C90.683 27.3684 90.2827 26.836 89.9553 26.2432V29.4737H82.0956V1.59708L89.9553 1.59708V12.5771C90.2342 12.1173 90.6163 11.6939 91.1015 11.3067C91.5866 10.9195 92.1324 10.5868 92.7389 10.3085C93.3453 10.0181 93.9942 9.79429 94.6856 9.637C95.377 9.47971 96.0683 9.40107 96.7597 9.40107C97.8513 9.40107 98.9126 9.58256 99.9436 9.94553C100.975 10.3085 101.89 10.9014 102.691 11.7241C103.491 12.5348 104.134 13.5995 104.619 14.9183C105.117 16.225 105.365 17.8221 105.365 19.7096C105.365 21.5003 105.123 23.0429 104.638 24.3375C104.164 25.6322 103.522 26.7029 102.709 27.5499C101.908 28.3847 100.968 29.0018 99.889 29.4011C98.8216 29.8003 97.6936 30 96.505 30ZM97.5056 19.7277C97.5056 18.7356 97.3965 17.9068 97.1781 17.2414C96.9598 16.5638 96.6687 16.0193 96.3048 15.608C95.941 15.1966 95.5286 14.9062 95.0677 14.7368C94.6189 14.5553 94.158 14.4646 93.685 14.4646C93.2119 14.4646 92.751 14.5553 92.3022 14.7368C91.8656 14.9062 91.4714 15.1966 91.1196 15.608C90.7679 16.0193 90.4829 16.5638 90.2645 17.2414C90.0584 17.9068 89.9553 18.7296 89.9553 19.7096C89.9553 20.7017 90.0584 21.5366 90.2645 22.2141C90.4829 22.8796 90.7679 23.418 91.1196 23.8294C91.4714 24.2287 91.8717 24.519 92.3204 24.7005C92.7692 24.8699 93.2301 24.9546 93.7031 24.9546C94.1762 24.9546 94.6371 24.8699 95.0859 24.7005C95.5468 24.519 95.9531 24.2287 96.3048 23.8294C96.6687 23.418 96.9598 22.8796 97.1781 22.2141C97.3965 21.5487 97.5056 20.7199 97.5056 19.7277Z" fill="white"/>
<path d="M77.8368 15.7531C76.6239 15.1966 75.4352 14.767 74.2708 14.4646C73.1186 14.15 72.1058 13.9927 71.2325 13.9927C70.3107 13.9927 69.6557 14.0834 69.2676 14.2649C68.8794 14.4343 68.6854 14.7368 68.6854 15.1724C68.6854 15.5595 68.9704 15.8681 69.5405 16.0979C70.1105 16.3157 70.9475 16.5698 72.0512 16.8602C73.1549 17.1506 74.1435 17.4712 75.0168 17.8221C75.8901 18.173 76.6299 18.6085 77.2364 19.1288C77.855 19.6491 78.3219 20.2722 78.6373 20.9981C78.9648 21.7241 79.1285 22.6134 79.1285 23.666C79.1285 24.6097 78.9466 25.4748 78.5827 26.2613C78.2188 27.0356 77.667 27.7011 76.9271 28.2577C76.1872 28.8142 75.2533 29.2437 74.1253 29.5462C72.9973 29.8487 71.6691 29.9999 70.1409 29.9999C68.7824 29.9999 67.4179 29.8971 66.0473 29.6914C64.6767 29.4978 63.294 29.1469 61.8991 28.6388V23.0308C63.1484 23.5753 64.4038 24.0108 65.6652 24.3375C66.9267 24.6642 68.1274 24.8275 69.2676 24.8275C71.3174 24.8275 72.3423 24.4041 72.3423 23.5571C72.3423 23.4119 72.2938 23.2788 72.1967 23.1578C72.0997 23.0368 71.9178 22.9219 71.6509 22.813C71.3962 22.692 71.0324 22.571 70.5593 22.45C70.0984 22.3169 69.5041 22.1597 68.7763 21.9782C67.7696 21.7362 66.8175 21.4276 65.9199 21.0526C65.0345 20.6654 64.2583 20.1996 63.5912 19.6551C62.9362 19.0986 62.4146 18.4512 62.0265 17.7132C61.6505 16.9751 61.4625 16.1342 61.4625 15.1905C61.4625 14.3436 61.6384 13.5632 61.9901 12.8493C62.354 12.1355 62.8937 11.5244 63.6093 11.0163C64.3371 10.5081 65.2346 10.1149 66.302 9.8366C67.3815 9.54622 68.6308 9.40103 70.0499 9.40103C70.8747 9.40103 71.6631 9.43733 72.4151 9.50992C73.1792 9.58252 73.9009 9.67326 74.5801 9.78216C75.2593 9.87895 75.8901 9.98784 76.4723 10.1088C77.0666 10.2177 77.6124 10.3206 78.1097 10.4174L77.8368 15.7531Z" fill="white"/>
<path d="M43.9407 30C42.752 30 41.618 29.8003 40.5385 29.4011C39.4711 29.0018 38.5311 28.3847 37.7185 27.5499C36.9179 26.7029 36.2751 25.6322 35.7899 24.3375C35.3169 23.0429 35.0804 21.5003 35.0804 19.7096C35.0804 17.8221 35.323 16.225 35.8081 14.9183C36.3054 13.5995 36.9543 12.5348 37.7549 11.7241C38.5554 10.9014 39.4711 10.3085 40.5021 9.94553C41.5331 9.58256 42.5944 9.40107 43.686 9.40107C44.3773 9.40107 45.0687 9.47971 45.7601 9.637C46.4514 9.79429 47.1003 10.0181 47.7068 10.3085C48.3132 10.5868 48.859 10.9195 49.3442 11.3067C49.8294 11.6939 50.2114 12.1173 50.4904 12.5771V1.59708L58.3501 1.59708V29.4737H50.4904V26.2432C50.1629 26.836 49.7627 27.3684 49.2896 27.8403C48.8166 28.3 48.289 28.6933 47.7068 29.0199C47.1367 29.3345 46.5303 29.5765 45.8874 29.7459C45.2446 29.9153 44.5957 30 43.9407 30ZM42.94 19.7277C42.94 20.7199 43.0492 21.5487 43.2675 22.2141C43.4859 22.8796 43.7709 23.418 44.1226 23.8294C44.4865 24.2287 44.8928 24.519 45.3416 24.7005C45.8025 24.8699 46.2695 24.9546 46.7425 24.9546C47.2156 24.9546 47.6765 24.8699 48.1252 24.7005C48.574 24.519 48.9743 24.2287 49.326 23.8294C49.6778 23.418 49.9567 22.8796 50.1629 22.2141C50.3812 21.5366 50.4904 20.7017 50.4904 19.7096C50.4904 18.7296 50.3812 17.9068 50.1629 17.2414C49.9567 16.5638 49.6778 16.0193 49.326 15.608C48.9743 15.1966 48.574 14.9062 48.1252 14.7368C47.6886 14.5553 47.2337 14.4646 46.7607 14.4646C46.2877 14.4646 45.8207 14.5553 45.3598 14.7368C44.911 14.9062 44.5047 15.1966 44.1408 15.608C43.7769 16.0193 43.4859 16.5638 43.2675 17.2414C43.0492 17.9068 42.94 18.7356 42.94 19.7277Z" fill="white"/>
<path d="M24.1262 9.89111H31.9859V29.4737H24.1262V9.89111ZM28.0743 5.86207C27.3829 5.86207 26.734 5.78947 26.1275 5.64428C25.5211 5.49909 24.9935 5.29946 24.5447 5.04537C24.108 4.79129 23.7563 4.48276 23.4895 4.11978C23.2347 3.75681 23.1074 3.35753 23.1074 2.92196C23.1074 2.43799 23.2347 2.01452 23.4895 1.65154C23.7442 1.27647 24.0959 0.967937 24.5447 0.725953C24.9935 0.483969 25.5211 0.30248 26.1275 0.181488C26.734 0.0604961 27.389 0 28.0925 0C28.7959 0 29.4509 0.0604961 30.0574 0.181488C30.676 0.30248 31.2096 0.483969 31.6584 0.725953C32.1072 0.967937 32.4589 1.27647 32.7136 1.65154C32.9684 2.01452 33.0957 2.43799 33.0957 2.92196C33.0957 3.35753 32.9623 3.75681 32.6954 4.11978C32.4407 4.48276 32.089 4.79129 31.6402 5.04537C31.1914 5.29946 30.6578 5.49909 30.0392 5.64428C29.4327 5.78947 28.7777 5.86207 28.0743 5.86207Z" fill="white"/>
<path d="M8.15076 18.6206V29.4736H0L0 3.8112L8.15076 3.8112V15.1179L13.9727 3.8112H23.488L16.1196 16.1161L23.488 29.4736H13.9727L8.73295 17.3865L8.15076 18.6206Z" fill="white"/>
</svg>
