<svg xmlns="http://www.w3.org/2000/svg" width="206" height="200" viewBox="0 0 206 200" fill="none">
  <ellipse opacity="0.1" cx="102.778" cy="100" rx="102.778" ry="100" fill="#2B1354"/>
  <path d="M116.392 63.4522C117.912 57.1187 116.62 50.6302 113.364 44.9896L106.104 32.4151L73.4833 49.9687L41.9712 69.4421L49.231 82.0166C52.4876 87.6572 57.7749 91.8389 64.0196 93.6896L90.6034 101.572C93.3437 102.384 94.9667 105.2 94.2997 107.98L87.8377 134.941C86.3182 141.274 87.2948 147.945 90.5514 153.586L97.8112 166.16L130.432 148.606L161.944 129.133L154.684 116.559C151.427 110.918 146.454 106.555 140.209 104.704L113.782 96.7314C111.042 95.9192 109.336 93.151 110.003 90.3717L116.392 63.4522Z" fill="#7650B7"/>
  <path d="M126.652 106.589C126.652 106.589 114.627 105.351 107.557 96.0541C103.041 85.2832 107.981 74.2502 107.981 74.2502C120.156 48.0211 102.229 34.6547 102.229 34.6547L73.7172 49.8335L46.4496 66.8592C46.4496 66.8592 49.1286 89.029 77.9315 91.5993C77.9315 91.5993 90.0137 92.8043 97.0918 102.096C101.6 112.872 96.6025 123.938 96.6025 123.938C84.427 150.168 102.287 163.573 102.287 163.573L130.666 148.471L158.067 131.368C158.067 131.368 155.455 109.16 126.652 106.589Z" fill="url(#paint0_linear_71_5513)"/>
  <path d="M89.221 90.2363C92.0675 90.3929 94.71 91.3724 96.89 93.2093C97.0334 93.3301 97.2359 93.5615 97.3695 93.6835C97.898 94.1666 98.7425 94.3617 99.3625 94.0037C99.3683 94.0004 99.3739 93.9972 99.3797 93.9938C100.353 93.4316 100.786 92.1659 100.6 91.0571C100.146 88.3536 100.631 85.6823 101.872 83.2383C111.214 64.8408 108.471 53.3112 108.471 53.3112L105.591 54.974L104.871 55.3896L63.8317 79.0835L63.1117 79.4992L60.2319 81.1619C60.2319 81.1619 68.7161 89.1083 89.221 90.2363Z" fill="#C4CD24"/>
  <path d="M125.716 124.037C122.885 123.882 120.128 122.776 117.917 121.001C117.657 120.792 117.385 120.543 117.149 120.329C116.57 119.803 115.706 119.693 115.028 120.084C114.018 120.667 113.472 121.81 113.668 122.959C114.158 125.83 113.794 128.923 112.477 131.52C102.667 150.863 105.71 163.257 105.71 163.257L108.74 161.508L109.498 161.07L152.681 136.139L153.438 135.701L156.469 133.952C156.469 133.952 147.321 125.218 125.716 124.037Z" fill="#C4CD24"/>
  <path d="M102.92 97.112C103.307 97.783 103.077 98.6411 102.406 99.0285C101.735 99.4159 100.877 99.186 100.49 98.515C100.102 97.8441 100.332 96.986 101.003 96.5986C101.674 96.2111 102.532 96.4411 102.92 97.112Z" fill="#C4CD24"/>
  <path d="M109.256 104.553C109.543 105.05 109.373 105.686 108.876 105.973C108.379 106.26 107.743 106.09 107.456 105.593C107.169 105.096 107.34 104.46 107.837 104.173C108.334 103.886 108.969 104.056 109.256 104.553Z" fill="#C4CD24"/>
  <path d="M109.397 113.112C109.684 113.609 109.514 114.244 109.017 114.531C108.52 114.818 107.884 114.648 107.597 114.151C107.31 113.654 107.481 113.018 107.978 112.731C108.475 112.444 109.11 112.615 109.397 113.112Z" fill="#C4CD24"/>
  <path d="M111.467 27.5028C112.884 29.9556 112.043 33.092 109.59 34.5081L42.2603 73.3811C39.8075 74.7973 36.6711 73.9568 35.255 71.504L35.0575 71.1619C33.6413 68.7091 34.4818 65.5727 36.9345 64.1566L104.265 25.2836C106.717 23.8674 109.854 24.7079 111.27 27.1607L111.467 27.5028Z" fill="#2B1354"/>
  <path d="M170.305 129.413C171.721 131.866 170.881 135.002 168.428 136.418L101.098 175.291C98.645 176.707 95.5086 175.867 94.0925 173.414L93.895 173.072C92.4788 170.619 93.3193 167.483 95.7721 166.067L163.102 127.194C165.555 125.778 168.691 126.618 170.107 129.071L170.305 129.413Z" fill="#2B1354"/>
  <defs>
    <linearGradient id="paint0_linear_71_5513" x1="72.9935" y1="116.01" x2="131.549" y2="82.2025" gradientUnits="userSpaceOnUse">
      <stop stop-color="#DAE3FE"/>
      <stop offset="1" stop-color="#E9EFFD"/>
    </linearGradient>
  </defs>
</svg>