<svg width="24" height="24" viewBox="0 0 24 24" fill="none" xmlns="http://www.w3.org/2000/svg">
<path fill-rule="evenodd" clip-rule="evenodd" d="M3 7C3 5.67392 3.52678 4.40215 4.46447 3.46447C5.40215 2.52678 6.67392 2 8 2H13C13.2652 2 13.5196 2.10536 13.7071 2.29289C13.8946 2.48043 14 2.73478 14 3C14 3.26522 13.8946 3.51957 13.7071 3.70711C13.5196 3.89464 13.2652 4 13 4H8C7.20435 4 6.44129 4.31607 5.87868 4.87868C5.31607 5.44129 5 6.20435 5 7V17C5 17.7956 5.31607 18.5587 5.87868 19.1213C6.44129 19.6839 7.20435 20 8 20H13C13.2652 20 13.5196 20.1054 13.7071 20.2929C13.8946 20.4804 14 20.7348 14 21C14 21.2652 13.8946 21.5196 13.7071 21.7071C13.5196 21.8946 13.2652 22 13 22H8C6.67392 22 5.40215 21.4732 4.46447 20.5355C3.52678 19.5979 3 18.3261 3 17V7Z" fill="#FF5A26"/>
<path fill-rule="evenodd" clip-rule="evenodd" d="M14.47 7.31556C14.5598 7.21965 14.6676 7.14238 14.7873 7.08815C14.907 7.03393 15.0362 7.00382 15.1675 6.99955C15.2988 6.99528 15.4297 7.01693 15.5526 7.06326C15.6755 7.10959 15.7882 7.17969 15.884 7.26956L20.684 11.7696C20.7839 11.8631 20.8636 11.9762 20.918 12.1017C20.9725 12.2273 21.0006 12.3627 21.0006 12.4996C21.0006 12.6364 20.9725 12.7718 20.918 12.8974C20.8636 13.023 20.7839 13.136 20.684 13.2296L15.884 17.7296C15.7881 17.8194 15.6755 17.8894 15.5526 17.9357C15.4296 17.982 15.2988 18.0037 15.1675 17.9994C15.0362 17.9951 14.907 17.965 14.7873 17.9109C14.6677 17.8567 14.5598 17.7794 14.47 17.6836C14.3802 17.5877 14.3101 17.4751 14.2638 17.3521C14.2175 17.2292 14.1959 17.0983 14.2002 16.967C14.2044 16.8357 14.2345 16.7066 14.2887 16.5869C14.3429 16.4672 14.4201 16.3594 14.516 16.2696L17.471 13.4996H8C7.73478 13.4996 7.48043 13.3942 7.29289 13.2067C7.10536 13.0191 7 12.7648 7 12.4996C7 12.2343 7.10536 11.98 7.29289 11.7925C7.48043 11.6049 7.73478 11.4996 8 11.4996H17.471L14.516 8.72956C14.4201 8.63976 14.3428 8.53194 14.2886 8.41227C14.2344 8.29259 14.2043 8.16341 14.2 8.03209C14.1957 7.90077 14.2174 7.7699 14.2637 7.64696C14.31 7.52401 14.3801 7.4114 14.47 7.31556Z" fill="#FF5A26"/>
</svg>
