<svg xmlns="http://www.w3.org/2000/svg" width="20" height="20" viewBox="0 0 20 20" fill="none">
  <g clip-path="url(#clip0_68_4983)">
    <path d="M8.33398 10.8335C8.69186 11.3119 9.14845 11.7078 9.67278 11.9943C10.1971 12.2807 10.7769 12.4511 11.3729 12.4937C11.9688 12.5364 12.567 12.4504 13.1268 12.2416C13.6866 12.0328 14.1949 11.706 14.6173 11.2835L17.1173 8.78347C17.8763 7.99762 18.2963 6.94512 18.2868 5.85263C18.2773 4.76014 17.8391 3.71509 17.0666 2.94256C16.294 2.17002 15.249 1.73182 14.1565 1.72233C13.064 1.71283 12.0115 2.13281 11.2257 2.8918L9.79232 4.3168" stroke="#2B1354" stroke-width="2" stroke-linecap="round" stroke-linejoin="round"/>
    <path d="M11.6668 9.16702C11.309 8.68858 10.8524 8.2927 10.328 8.00623C9.80371 7.71977 9.22391 7.54942 8.62796 7.50674C8.03201 7.46406 7.43384 7.55004 6.87405 7.75887C6.31425 7.96769 5.8059 8.29446 5.3835 8.71702L2.8835 11.217C2.12451 12.0029 1.70453 13.0554 1.71402 14.1479C1.72352 15.2403 2.16172 16.2854 2.93426 17.0579C3.70679 17.8305 4.75184 18.2687 5.84433 18.2782C6.93681 18.2877 7.98932 17.8677 8.77517 17.1087L10.2002 15.6837" stroke="#2B1354" stroke-width="2" stroke-linecap="round" stroke-linejoin="round"/>
  </g>
  <defs>
    <clipPath id="clip0_68_4983">
      <rect width="20" height="20" fill="white"/>
    </clipPath>
  </defs>
</svg>