<svg xmlns="http://www.w3.org/2000/svg" width="7" height="12" viewBox="0 0 7 12" fill="none">
                                    <path d="M0.188112 1.01176C0.128023 0.954507 0.0810471 0.887163 0.0498658 0.813569C0.0186845 0.739975 0.00390822 0.661572 0.00638204 0.582837C0.00885634 0.504102 0.0285311 0.426577 0.0642839 0.354688C0.100036 0.282798 0.151166 0.217953 0.214754 0.163854C0.278342 0.109755 0.353144 0.0674614 0.434887 0.0393886C0.51663 0.0113157 0.603714 -0.00198688 0.691167 0.000240412C0.77862 0.0024677 0.86473 0.0201812 0.94458 0.0523695C1.02443 0.0845579 1.09646 0.130591 1.15654 0.18784L6.81794 5.58467C6.93486 5.69601 7 5.84341 7 5.99663C7 6.14985 6.93486 6.29725 6.81794 6.40859L1.15655 11.806C1.09685 11.8645 1.02484 11.9118 0.9447 11.945C0.864556 11.9782 0.777877 11.9968 0.689696 11.9996C0.601515 12.0024 0.513591 11.9895 0.43103 11.9614C0.348469 11.9334 0.272917 11.8909 0.208763 11.8363C0.144609 11.7818 0.0931311 11.7163 0.0573207 11.6437C0.0215097 11.5711 0.00207954 11.4928 0.000158354 11.4134C-0.00176283 11.334 0.0138631 11.255 0.0461293 11.1811C0.0783949 11.1071 0.126657 11.0397 0.188113 10.9827L5.41791 5.99663L0.188112 1.01176Z" fill="#2B1354" />
                                </svg>