<svg xmlns="http://www.w3.org/2000/svg" width="193" height="263" viewBox="0 0 193 263" fill="none">
  <g filter="url(#filter0_d_27_5490)">
    <path d="M144.436 4C147.908 20.5249 167.97 27.0191 180.444 15.7025C178.643 32.4845 195.683 44.8943 211.05 37.95C204.106 53.3175 216.515 70.421 233.298 68.5564C221.981 81.0304 228.475 101.156 245 104.564C230.34 112.923 230.34 134.077 245 142.436C228.475 145.908 221.981 165.97 233.298 178.444C216.515 176.643 204.106 193.683 211.05 209.05C195.683 202.106 178.579 214.515 180.444 231.298C167.97 219.981 147.844 226.475 144.436 243C136.077 228.34 114.923 228.34 106.564 243C103.092 226.475 83.0304 219.981 70.5564 231.298C72.3567 214.515 55.3175 202.106 39.95 209.05C46.8943 193.683 34.4845 176.579 17.7024 178.444C29.0191 165.97 22.5249 145.844 6 142.436C20.6602 134.077 20.6602 112.923 6 104.564C22.5249 101.092 29.0191 81.0304 17.7024 68.5564C34.4845 70.3567 46.8943 53.3175 39.95 37.95C55.3175 44.8943 72.421 32.4845 70.5564 15.7025C83.0304 27.0191 103.156 20.5249 106.564 4C114.987 18.6602 136.077 18.6602 144.436 4Z" fill="#FF7143"/>
  </g>
  <path d="M178.708 91.9852C162.455 73.308 143.471 72.5345 125.468 77.3056L125.183 84.2998C145.96 85.1463 154.827 88.5814 163.66 109.453C168.104 106.665 176.134 96.8221 178.708 91.9852Z" fill="#2B1354"/>
  <path d="M53.4721 65.1582C75.6767 54.206 93.4873 60.8235 108.252 72.1766L105.814 78.7383C86.3215 71.496 76.8153 71.2404 60.6078 87.0818C57.5854 82.7942 53.9792 70.6141 53.4721 65.1582Z" fill="#2B1354"/>
  <ellipse cx="77.7513" cy="121.859" rx="26" ry="31" transform="rotate(9.4812 77.7513 121.859)" fill="#2B1354"/>
  <path d="M77.5495 140.281L88.5245 130.278L104.693 127.024L101.279 135.875L77.5495 140.281Z" fill="#FF7143"/>
  <ellipse cx="74.957" cy="120.379" rx="17" ry="21" transform="rotate(9.4812 74.957 120.379)" fill="#FF7143"/>
  <path d="M78.3854 109.881C78.4632 109.737 78.5684 109.622 78.6865 109.552C78.8047 109.482 78.93 109.459 79.0456 109.488C79.1612 109.517 79.2614 109.596 79.3326 109.713C79.4038 109.831 79.4425 109.982 79.4435 110.146L79.4615 112.363C79.4758 114.101 79.7737 115.75 80.3345 117.197C80.8954 118.643 81.7056 119.851 82.7089 120.737L83.9875 121.866C84.0822 121.949 84.1507 122.074 84.1835 122.225C84.2164 122.375 84.2121 122.544 84.1712 122.708C84.1303 122.872 84.0548 123.023 83.955 123.14C83.8551 123.258 83.7358 123.336 83.6132 123.365L81.9538 123.76C80.6519 124.07 79.3689 124.756 78.194 125.768C77.0191 126.781 75.9806 128.097 75.1508 129.624L74.093 131.571C74.0151 131.715 73.91 131.83 73.7918 131.901C73.6737 131.971 73.5483 131.993 73.4327 131.964C73.3171 131.935 73.2169 131.857 73.1458 131.739C73.0746 131.622 73.0358 131.471 73.0348 131.307L73.0165 129.091C73.0022 127.353 72.7043 125.704 72.1434 124.257C71.5826 122.811 70.7723 121.603 69.7691 120.717L68.4893 119.588C68.3946 119.505 68.3262 119.38 68.2933 119.229C68.2604 119.078 68.2648 118.91 68.3057 118.746C68.3466 118.582 68.422 118.431 68.5219 118.314C68.6217 118.196 68.741 118.118 68.8637 118.089L70.5242 117.694C71.826 117.384 73.1091 116.698 74.284 115.686C75.4589 114.673 76.4974 113.357 77.3272 111.83L78.3854 109.881Z" fill="#2B1354"/>
  <ellipse cx="135.5" cy="130.871" rx="26" ry="31" transform="rotate(6.82623 135.5 130.871)" fill="#2B1354"/>
  <path d="M136.152 149.282L146.652 138.782L162.652 134.782L159.652 143.782L136.152 149.282Z" fill="#FF7143"/>
  <ellipse cx="132.64" cy="129.521" rx="17" ry="21" transform="rotate(6.82623 132.64 129.521)" fill="#FF7143"/>
  <path d="M135.578 118.876C135.649 118.729 135.749 118.609 135.864 118.533C135.979 118.457 136.103 118.429 136.22 118.453C136.337 118.476 136.44 118.55 136.517 118.664C136.593 118.778 136.639 118.928 136.648 119.091L136.768 121.305C136.863 123.041 137.237 124.675 137.864 126.093C138.492 127.512 139.357 128.681 140.4 129.519L141.73 130.588C141.828 130.667 141.902 130.789 141.942 130.938C141.982 131.087 141.985 131.255 141.952 131.421C141.919 131.586 141.85 131.741 141.756 131.863C141.662 131.985 141.546 132.069 141.425 132.103L139.786 132.575C138.5 132.945 137.25 133.689 136.123 134.755C134.996 135.821 134.02 137.184 133.262 138.748L132.295 140.741C132.224 140.889 132.124 141.009 132.01 141.084C131.895 141.16 131.771 141.188 131.654 141.165C131.537 141.141 131.433 141.067 131.357 140.953C131.28 140.839 131.235 140.69 131.226 140.526L131.105 138.314C131.01 136.579 130.636 134.944 130.009 133.526C129.382 132.107 128.516 130.938 127.473 130.1L126.143 129.031C126.044 128.952 125.97 128.83 125.93 128.681C125.89 128.532 125.887 128.363 125.92 128.198C125.953 128.033 126.022 127.878 126.116 127.756C126.21 127.634 126.326 127.55 126.447 127.516L128.088 127.044C129.374 126.674 130.624 125.93 131.75 124.864C132.877 123.798 133.853 122.436 134.612 120.871L135.578 118.876Z" fill="#2B1354"/>
  <defs>
    <filter id="filter0_d_27_5490" x="0" y="0" width="263" height="263" filterUnits="userSpaceOnUse" color-interpolation-filters="sRGB">
      <feFlood flood-opacity="0" result="BackgroundImageFix"/>
      <feColorMatrix in="SourceAlpha" type="matrix" values="0 0 0 0 0 0 0 0 0 0 0 0 0 0 0 0 0 0 127 0" result="hardAlpha"/>
      <feOffset dx="6" dy="8"/>
      <feGaussianBlur stdDeviation="6"/>
      <feComposite in2="hardAlpha" operator="out"/>
      <feColorMatrix type="matrix" values="0 0 0 0 0 0 0 0 0 0 0 0 0 0 0 0 0 0 0.34 0"/>
      <feBlend mode="normal" in2="BackgroundImageFix" result="effect1_dropShadow_27_5490"/>
      <feBlend mode="normal" in="SourceGraphic" in2="effect1_dropShadow_27_5490" result="shape"/>
    </filter>
  </defs>
</svg>