<svg xmlns="http://www.w3.org/2000/svg" width="100" height="100" viewBox="0 0 100 100" fill="none">
  <mask id="mask0_660_135" style="mask-type:alpha" maskUnits="userSpaceOnUse" x="0" y="0" width="100" height="100">
    <path d="M54.4889 3.03384C56.4989 -1.92408 63.8688 -0.450101 63.842 4.883C63.8152 9.22453 69.0947 11.4221 72.1498 8.31334C75.9017 4.50781 82.146 8.68854 80.0557 13.5929C78.3673 17.6128 82.3872 21.6327 86.4072 19.9443C91.3383 17.854 95.4922 24.0983 91.6867 27.8502C88.5779 30.9053 90.7755 36.1849 95.117 36.1581C100.45 36.1313 101.924 43.5011 96.9662 45.5111C92.9194 47.1459 92.9194 52.8542 96.9662 54.4889C101.924 56.4989 100.45 63.8688 95.117 63.842C90.7755 63.8152 88.5779 69.0947 91.6867 72.1498C95.4922 75.9017 91.3115 82.146 86.4072 80.0557C82.3872 78.3673 78.3673 82.3872 80.0557 86.4072C82.146 91.3383 75.9017 95.4922 72.1498 91.6867C69.0947 88.5779 63.8152 90.7755 63.842 95.117C63.8688 100.45 56.4989 101.924 54.4889 96.9662C52.8542 92.9194 47.1459 92.9194 45.5111 96.9662C43.5011 101.924 36.1313 100.45 36.1581 95.117C36.1849 90.7755 30.9053 88.5779 27.8502 91.6867C24.0983 95.4922 17.854 91.3115 19.9443 86.4072C21.6327 82.3872 17.6128 78.3673 13.5928 80.0557C8.66174 82.146 4.50781 75.9017 8.31334 72.1498C11.4221 69.0947 9.22453 63.8152 4.883 63.842C-0.450101 63.8688 -1.92408 56.4989 3.03384 54.4889C7.08057 52.8542 7.08057 47.1459 3.03384 45.5111C-1.92408 43.5011 -0.450101 36.1313 4.883 36.1581C9.22453 36.1849 11.4221 30.9053 8.31334 27.8502C4.50781 24.0983 8.68854 17.854 13.5928 19.9443C17.6128 21.6327 21.6327 17.6128 19.9443 13.5929C17.854 8.66174 24.0983 4.50781 27.8502 8.31334C30.9053 11.4221 36.1849 9.22453 36.1581 4.883C36.1313 -0.450101 43.5011 -1.92408 45.5111 3.03384C47.1459 7.08057 52.8542 7.08057 54.4889 3.03384Z" fill="#CDD04E"/>
  </mask>
  <g mask="url(#mask0_660_135)">
    <path d="M54.4889 3.03384C56.4989 -1.92408 63.8688 -0.450101 63.842 4.883C63.8152 9.22453 69.0947 11.4221 72.1498 8.31334C75.9017 4.50781 82.146 8.68854 80.0557 13.5929C78.3673 17.6128 82.3872 21.6327 86.4072 19.9443C91.3383 17.854 95.4922 24.0983 91.6867 27.8502C88.5779 30.9053 90.7755 36.1849 95.117 36.1581C100.45 36.1313 101.924 43.5011 96.9662 45.5111C92.9194 47.1459 92.9194 52.8542 96.9662 54.4889C101.924 56.4989 100.45 63.8688 95.117 63.842C90.7755 63.8152 88.5779 69.0947 91.6867 72.1498C95.4922 75.9017 91.3115 82.146 86.4072 80.0557C82.3872 78.3673 78.3673 82.3872 80.0557 86.4072C82.146 91.3383 75.9017 95.4922 72.1498 91.6867C69.0947 88.5779 63.8152 90.7755 63.842 95.117C63.8688 100.45 56.4989 101.924 54.4889 96.9662C52.8542 92.9194 47.1459 92.9194 45.5111 96.9662C43.5011 101.924 36.1313 100.45 36.1581 95.117C36.1849 90.7755 30.9053 88.5779 27.8502 91.6867C24.0983 95.4922 17.854 91.3115 19.9443 86.4072C21.6327 82.3872 17.6128 78.3673 13.5928 80.0557C8.66174 82.146 4.50781 75.9017 8.31334 72.1498C11.4221 69.0947 9.22453 63.8152 4.883 63.842C-0.450101 63.8688 -1.92408 56.4989 3.03384 54.4889C7.08057 52.8542 7.08057 47.1459 3.03384 45.5111C-1.92408 43.5011 -0.450101 36.1313 4.883 36.1581C9.22453 36.1849 11.4221 30.9053 8.31334 27.8502C4.50781 24.0983 8.68854 17.854 13.5928 19.9443C17.6128 21.6327 21.6327 17.6128 19.9443 13.5929C17.854 8.66174 24.0983 4.50781 27.8502 8.31334C30.9053 11.4221 36.1849 9.22453 36.1581 4.883C36.1313 -0.450101 43.5011 -1.92408 45.5111 3.03384C47.1459 7.08057 52.8542 7.08057 54.4889 3.03384Z" fill="#C4CD24"/>
    <path d="M8.58023 -49.473C-13.7918 3.93171 -17.6709 56.6237 54.0726 53.2622C125.816 49.9006 143.81 111.784 128.829 147.546" stroke="black" stroke-opacity="0.04" stroke-width="40"/>
  </g>
</svg>