<svg xmlns="http://www.w3.org/2000/svg" width="24" height="24" viewBox="0 0 24 24" fill="none">
  <g clip-path="url(#clip0_18_1533)">
    <path fill-rule="evenodd" clip-rule="evenodd" d="M17.5079 4.3508C15.9797 3.25088 14.1571 2.6338 12.275 2.57909C10.3929 2.52437 8.53753 3.03452 6.94799 4.04379C5.35845 5.05307 4.10757 6.51523 3.35654 8.24185C2.60551 9.96847 2.38874 11.8804 2.73417 13.7314C2.79108 14.0639 2.715 14.4055 2.52235 14.6824C2.32969 14.9594 2.0359 15.1495 1.70434 15.2119C1.37277 15.2742 1.02999 15.2036 0.749943 15.0155C0.469891 14.8274 0.275002 14.5367 0.207309 14.2062C-0.239424 11.8154 0.0509868 9.34529 1.04005 7.12329C2.02911 4.90128 3.67011 3.03233 5.74552 1.76418C7.82093 0.496029 10.2327 -0.111436 12.6613 0.02231C15.0898 0.156056 17.4203 1.0247 19.3439 2.51309L20.393 1.46394C20.5128 1.34387 20.6655 1.26202 20.8318 1.22876C20.9981 1.19551 21.1706 1.21234 21.3273 1.27713C21.484 1.34192 21.618 1.45175 21.7123 1.59273C21.8066 1.7337 21.857 1.89948 21.857 2.06909V5.99994C21.857 6.22727 21.7667 6.44529 21.606 6.60604C21.4452 6.76678 21.2272 6.85709 20.9999 6.85709H17.069C16.8998 6.85671 16.7344 6.80624 16.5938 6.71203C16.4532 6.61782 16.3436 6.48409 16.2789 6.3277C16.2142 6.17131 16.1972 5.99927 16.2301 5.83325C16.2631 5.66723 16.3444 5.51467 16.4639 5.3948L17.5079 4.3508ZM22.2924 8.76852C22.6275 8.70532 22.974 8.77782 23.2556 8.97008C23.5372 9.16233 23.731 9.45858 23.7942 9.79366C24.2413 12.1848 23.951 14.6553 22.9619 16.8776C21.9728 19.1 20.3316 20.9693 18.2558 22.2375C16.1801 23.5058 13.7679 24.1131 11.339 23.979C8.91017 23.845 6.57944 22.9758 4.65588 21.4868L3.60674 22.5377C3.48686 22.6578 3.33399 22.7397 3.16752 22.7729C3.00105 22.8061 2.82847 22.7891 2.67166 22.7241C2.51485 22.6591 2.38087 22.549 2.2867 22.4078C2.19254 22.2666 2.14243 22.1006 2.14274 21.9308V17.9999C2.14274 17.7726 2.23304 17.5546 2.39379 17.3939C2.55453 17.2331 2.77255 17.1428 2.99988 17.1428H6.93074C7.10049 17.1425 7.2665 17.1926 7.40774 17.2868C7.54898 17.3809 7.65908 17.5149 7.72408 17.6717C7.78908 17.8285 7.80606 18.0011 7.77286 18.1676C7.73966 18.3341 7.65778 18.4869 7.53759 18.6068L6.49188 19.6508C8.0201 20.7507 9.84268 21.3678 11.7248 21.4225C13.6069 21.4772 15.4622 20.9671 17.0518 19.9578C18.6413 18.9485 19.8922 17.4864 20.6432 15.7598C21.3943 14.0331 21.611 12.1212 21.2656 10.2702C21.2343 10.1041 21.2362 9.93338 21.271 9.76793C21.3058 9.60248 21.3729 9.44552 21.4684 9.30603C21.5639 9.16654 21.6861 9.04727 21.8277 8.95503C21.9694 8.8628 22.1279 8.79942 22.2942 8.76852H22.2924ZM10.5959 6.91537C10.9216 5.42394 13.0422 5.41709 13.3816 6.90166L13.3987 6.97709C13.5814 7.89009 14.0362 8.7264 14.7032 9.37601C15.3703 10.0256 16.2184 10.4581 17.1359 10.6165C18.6856 10.8857 18.6856 13.1142 17.1342 13.3834C16.2373 13.5387 15.4065 13.9559 14.7464 14.5825C14.0863 15.2091 13.6263 16.017 13.4245 16.9045L13.3816 17.0982C13.0422 18.5845 10.9216 18.5742 10.5959 17.0862L10.5599 16.9199C10.3641 16.0302 9.90814 15.2187 9.25003 14.5887C8.59192 13.9586 7.76135 13.5385 6.86388 13.3817C5.31588 13.1125 5.31588 10.8891 6.86388 10.6199C7.75838 10.4633 8.58638 10.045 9.2433 9.41797C9.90021 8.79096 10.3566 7.98332 10.5547 7.09709L10.5822 6.97537L10.5959 6.91537Z" fill="#EBEBEB"/>
  </g>
  <defs>
    <clipPath id="clip0_18_1533">
      <rect width="24" height="24" fill="white"/>
    </clipPath>
  </defs>
</svg>