<svg xmlns="http://www.w3.org/2000/svg" width="24" height="24" viewBox="0 0 24 24" fill="none">
  <path fill-rule="evenodd" clip-rule="evenodd" d="M16.59 5.62325C15.3163 4.70638 13.7972 4.192 12.2285 4.14639C10.6597 4.10078 9.11332 4.52603 7.78845 5.36733C6.46358 6.20864 5.42098 7.42745 4.79501 8.86671C4.16903 10.306 3.98835 11.8997 4.27626 13.4426C4.32369 13.7198 4.26029 14.0045 4.09971 14.2354C3.93914 14.4663 3.69426 14.6248 3.41791 14.6767C3.14155 14.7286 2.85585 14.6699 2.62243 14.5131C2.38901 14.3562 2.22657 14.114 2.17014 13.8385C1.7978 11.8455 2.03985 9.78651 2.86423 7.93431C3.6886 6.08211 5.05636 4.52421 6.7862 3.46711C8.51604 2.41002 10.5263 1.90365 12.5504 2.01514C14.5746 2.12662 16.517 2.8507 18.1203 4.09138L18.9948 3.21684C19.0946 3.11675 19.2219 3.04852 19.3605 3.0208C19.4991 2.99308 19.6429 3.00711 19.7735 3.06112C19.9042 3.11513 20.0158 3.20668 20.0944 3.32419C20.173 3.44171 20.215 3.5799 20.215 3.72127V6.99792C20.215 7.18742 20.1398 7.36915 20.0058 7.50314C19.8718 7.63714 19.6901 7.71241 19.5006 7.71241H16.2243C16.0832 7.7121 15.9454 7.67003 15.8282 7.5915C15.711 7.51297 15.6197 7.4015 15.5657 7.27113C15.5118 7.14077 15.4976 6.99736 15.5251 6.85897C15.5525 6.72058 15.6203 6.59341 15.7199 6.49349L16.59 5.62325ZM20.5779 9.30573C20.8572 9.25305 21.146 9.31349 21.3807 9.47374C21.6155 9.634 21.7769 9.88094 21.8296 10.1603C22.2023 12.1534 21.9604 14.2128 21.136 16.0653C20.3116 17.9178 18.9436 19.4759 17.2135 20.5331C15.4833 21.5903 13.4728 22.0965 11.4483 21.9848C9.42391 21.873 7.48127 21.1485 5.878 19.9073L5.00354 20.7833C4.90363 20.8835 4.77621 20.9517 4.63746 20.9794C4.49871 21.0071 4.35486 20.9929 4.22416 20.9387C4.09346 20.8846 3.98179 20.7928 3.9033 20.6751C3.82482 20.5573 3.78306 20.4189 3.78331 20.2774V17.0008C3.78331 16.8113 3.85858 16.6296 3.99256 16.4956C4.12654 16.3616 4.30826 16.2863 4.49773 16.2863H7.77407C7.91556 16.286 8.05393 16.3278 8.17165 16.4063C8.28937 16.4848 8.38114 16.5965 8.43532 16.7272C8.4895 16.8579 8.50365 17.0018 8.47598 17.1405C8.4483 17.2793 8.38005 17.4067 8.27988 17.5066L7.40829 18.3769C8.68205 19.2938 10.2012 19.8081 11.7699 19.8537C13.3386 19.8994 14.885 19.4741 16.2099 18.6328C17.5347 17.7915 18.5773 16.5727 19.2033 15.1334C19.8293 13.6942 20.01 12.1004 19.7221 10.5575C19.696 10.419 19.6975 10.2767 19.7265 10.1388C19.7556 10.0009 19.8115 9.87006 19.8911 9.75378C19.9707 9.63751 20.0725 9.53808 20.1906 9.4612C20.3087 9.38432 20.4408 9.33148 20.5794 9.30573H20.5779Z" fill="#EBEBEB"/>
</svg>