<svg xmlns="http://www.w3.org/2000/svg" width="125" height="75" viewBox="0 0 125 75" fill="none">
  <path d="M123.338 72.8229C107.822 53.4553 89.67 38.4002 66.0197 42.2544C57.8743 43.5818 48.9109 46.4068 41.9369 51.0114C38.7747 53.0993 33.4816 57.7461 34.4192 61.9033C35.976 68.8057 46.252 63.6255 49.8471 61.5644C56.3458 57.8386 60.2006 45.5041 56.1997 38.9899C48.7731 26.8978 31.9499 19.0486 19.7859 12.7286C14.9291 10.2052 9.42165 8.61542 4.74582 5.91582C2.93166 4.86842 6.00118 9.67635 6.32639 10.6765C8.24528 16.5779 8.49518 16.6331 5.39657 10.6207C4.9675 9.78814 1.51581 4.19726 1.78743 3.72679C1.977 3.39845 14.1211 2.04347 15.4611 1.51995" stroke="white" stroke-width="2.8" stroke-linecap="round"/>
</svg>