<svg xmlns="http://www.w3.org/2000/svg" width="149" height="137" viewBox="0 0 149 137" fill="none">
  <path d="M112.506 1.52859C139.998 13.6648 158.563 33.4882 140.205 63.8148C126.063 87.1764 87.5065 94.2133 69.8481 70.2103C65.6172 64.4592 69.0179 55.0779 73.5059 50.3994C80.6057 42.9983 89.5559 43.1799 98.1903 48.1851C113.875 57.2776 125.753 80.5307 115.493 97.5382C99.4378 124.154 66.3553 130.656 37.4773 126.055C31.7251 125.139 -9.60875 111.18 14.8767 111.254C19.3205 111.268 32.6175 111.83 28.1816 112.096C20.8268 112.538 16.676 112.479 9.37958 110.524C7.93101 110.136 0.644318 107.049 2.41296 110.967C6.03432 118.991 9.02 127.256 12.831 135.21" stroke="white" stroke-width="2.8" stroke-linecap="round"/>
</svg>