<svg xmlns="http://www.w3.org/2000/svg" width="20" height="20" viewBox="0 0 20 20" fill="none">
  <path opacity="0.4" d="M15.8196 12.8109C15.8864 12.871 15.965 12.918 16.0508 12.9492C16.1367 12.9803 16.2282 12.9951 16.32 12.9926C16.4119 12.9902 16.5023 12.9705 16.5862 12.9347C16.6701 12.899 16.7457 12.8479 16.8088 12.7843C16.872 12.7207 16.9213 12.6459 16.954 12.5641C16.9868 12.4824 17.0023 12.3953 16.9997 12.3079C16.9971 12.2204 16.9765 12.1343 16.9389 12.0544C16.9013 11.9746 16.8476 11.9026 16.7809 11.8425L10.4845 6.18108C10.3547 6.06417 10.1827 5.99902 10.0039 5.99902C9.82518 5.99902 9.65321 6.06417 9.52331 6.18108L3.22631 11.8425C3.15806 11.9022 3.10294 11.9742 3.06417 12.0543C3.02539 12.1345 3.00373 12.2211 3.00044 12.3093C2.99715 12.3975 3.0123 12.4854 3.045 12.568C3.0777 12.6506 3.12731 12.7261 3.19094 12.7903C3.25457 12.8544 3.33096 12.9059 3.41566 12.9417C3.50036 12.9775 3.5917 12.9969 3.68436 12.9989C3.77701 13.0008 3.86915 12.9852 3.95541 12.9529C4.04167 12.9206 4.12034 12.8724 4.18684 12.8109L10.0039 7.58111L15.8196 12.8109Z" fill="#2B1354"/>
</svg>