<svg xmlns="http://www.w3.org/2000/svg" width="48" height="48" viewBox="0 0 48 48" fill="none">
<circle cx="24" cy="24" r="24" fill="#2B1354"/>
<path fill-rule="evenodd" clip-rule="evenodd" d="M28.131 18.2609C26.9847 17.4357 25.6175 16.9728 24.2056 16.9318C22.7938 16.8907 21.402 17.2734 20.2096 18.0306C19.0172 18.7878 18.0789 19.8847 17.5155 21.18C16.9521 22.4754 16.7895 23.9098 17.0486 25.2984C17.0913 25.5478 17.0343 25.8041 16.8897 26.0119C16.7452 26.2196 16.5248 26.3623 16.2761 26.409C16.0274 26.4558 15.7703 26.4029 15.5602 26.2618C15.3501 26.1206 15.2039 25.9026 15.1531 25.6546C14.818 23.861 15.0359 22.0079 15.7778 20.3409C16.5197 18.6739 17.7507 17.2718 19.3076 16.3204C20.8644 15.369 22.6736 14.9133 24.4954 15.0136C26.3171 15.114 28.0653 15.7656 29.5083 16.8822L30.2953 16.0952C30.3852 16.0051 30.4997 15.9437 30.6245 15.9187C30.7492 15.8938 30.8786 15.9064 30.9962 15.955C31.1137 16.0036 31.2143 16.086 31.285 16.1918C31.3557 16.2975 31.3935 16.4219 31.3935 16.5491V19.4981C31.3935 19.6687 31.3258 19.8322 31.2052 19.9528C31.0846 20.0734 30.9211 20.1412 30.7505 20.1412H27.8018C27.6749 20.1409 27.5508 20.103 27.4454 20.0323C27.3399 19.9617 27.2577 19.8613 27.2091 19.744C27.1606 19.6267 27.1479 19.4976 27.1725 19.3731C27.1972 19.2485 27.2583 19.1341 27.3479 19.0441L28.131 18.2609ZM31.7201 21.5752C31.9715 21.5277 32.2314 21.5821 32.4427 21.7264C32.6539 21.8706 32.7992 22.0928 32.8467 22.3442C33.182 24.1381 32.9643 25.9915 32.2224 27.6587C31.4804 29.326 30.2492 30.7283 28.6921 31.6798C27.135 32.6312 25.3255 33.0869 23.5035 32.9863C21.6815 32.8857 19.9331 32.2337 18.4902 31.1166L17.7032 31.905C17.6133 31.9951 17.4986 32.0566 17.3737 32.0815C17.2488 32.1064 17.1194 32.0936 17.0017 32.0449C16.8841 31.9961 16.7836 31.9135 16.713 31.8075C16.6423 31.7016 16.6048 31.577 16.605 31.4497V28.5007C16.605 28.3302 16.6727 28.1666 16.7933 28.046C16.9139 27.9254 17.0774 27.8577 17.248 27.8577H20.1967C20.324 27.8574 20.4485 27.895 20.5545 27.9657C20.6604 28.0363 20.743 28.1368 20.7918 28.2545C20.8405 28.3721 20.8533 28.5016 20.8284 28.6265C20.8035 28.7514 20.742 28.866 20.6519 28.956L19.8675 29.7392C21.0138 30.5644 22.381 31.0273 23.7929 31.0684C25.2047 31.1094 26.5965 30.7267 27.7889 29.9695C28.9813 29.2123 29.9196 28.1154 30.483 26.8201C31.0464 25.5247 31.209 24.0904 30.9499 22.7018C30.9264 22.5771 30.9278 22.4491 30.9539 22.3249C30.98 22.2008 31.0303 22.0831 31.102 21.9784C31.1737 21.8738 31.2653 21.7843 31.3716 21.7151C31.4778 21.6459 31.5967 21.5983 31.7214 21.5752H31.7201ZM22.946 20.1849C23.1904 19.066 24.7811 19.0609 25.0357 20.1746L25.0486 20.2312C25.1856 20.9161 25.5268 21.5436 26.0272 22.0309C26.5275 22.5182 27.1637 22.8427 27.852 22.9615C29.0145 23.1635 29.0145 24.8354 27.8507 25.0373C27.178 25.1538 26.5547 25.4668 26.0595 25.9369C25.5643 26.407 25.2193 27.0131 25.0679 27.6789L25.0357 27.8242C24.7811 28.9393 23.1904 28.9315 22.946 27.8152L22.919 27.6905C22.7722 27.0229 22.4301 26.4142 21.9365 25.9415C21.4428 25.4689 20.8197 25.1537 20.1465 25.036C18.9853 24.8341 18.9853 23.166 20.1465 22.9641C20.8175 22.8466 21.4386 22.5328 21.9314 22.0624C22.4242 21.592 22.7665 20.9861 22.9152 20.3212L22.9358 20.2299L22.946 20.1849Z" fill="#EBEBEB"/>
</svg>