<svg xmlns="http://www.w3.org/2000/svg" width="24" height="24" viewBox="0 0 24 24" fill="none">
  <path d="M15.9656 14.6834L13.6767 12.4643L13.535 12.3374C13.0911 11.969 12.5302 11.7665 11.9503 11.7653C11.3704 11.7641 10.8086 11.9643 10.3632 12.3309L10.2138 12.4643L3.36809 19.1065C3.26003 19.2111 3.12312 19.2818 2.9745 19.3099C2.82588 19.338 2.67217 19.3222 2.53262 19.2644C2.39308 19.2066 2.2739 19.1095 2.19003 18.9851C2.10616 18.8607 2.06131 18.7147 2.06112 18.5652V5.52498C2.06112 4.5901 2.43719 3.6935 3.10659 3.03244C3.776 2.37138 4.68391 2 5.63059 2H18.261C19.2077 2 20.1156 2.37138 20.785 3.03244C21.4544 3.6935 21.8305 4.5901 21.8305 5.52498V10.6899C21.3058 10.6444 20.7774 10.7131 20.2825 10.8911C19.7876 11.0691 19.3383 11.3522 18.9661 11.7203L15.9656 14.6834ZM13.5933 7.69637C13.5933 8.34417 13.8538 8.96544 14.3177 9.4235C14.7815 9.88157 15.4107 10.1389 16.0666 10.1389C16.7226 10.1389 17.3517 9.88157 17.8156 9.4235C18.2794 8.96544 18.54 8.34417 18.54 7.69637C18.54 7.04842 18.2794 6.42701 17.8154 5.96885C17.3515 5.51068 16.7222 5.25329 16.0661 5.25329C15.41 5.25329 14.7807 5.51068 14.3168 5.96885C13.8528 6.42701 13.5922 7.04842 13.5922 7.69637M16.0655 6.88074C16.2846 6.88074 16.4947 6.96667 16.6495 7.11963C16.8044 7.27259 16.8915 7.48005 16.8915 7.69637C16.8915 7.91269 16.8044 8.12014 16.6495 8.2731C16.4947 8.42606 16.2846 8.51199 16.0655 8.51199C15.8465 8.51199 15.6364 8.42606 15.4815 8.2731C15.3266 8.12014 15.2396 7.91269 15.2396 7.69637C15.2396 7.48005 15.3266 7.27259 15.4815 7.11963C15.6364 6.96667 15.8465 6.88074 16.0655 6.88074ZM11.367 13.6248L11.4593 13.5478C11.5983 13.4479 11.7655 13.3934 11.9374 13.3921C12.1094 13.3907 12.2775 13.4425 12.4181 13.5402L12.5213 13.6248L14.8003 15.8342L12.4829 18.1227C12.0034 18.5971 11.6519 19.1825 11.4604 19.8256C11.0814 19.2442 10.5048 18.8331 9.90956 18.5967C9.15064 18.2952 8.38732 18.4232 7.78326 18.6347L7.66025 18.678C7.13306 18.8603 6.71132 18.2355 7.07815 17.8201L7.30879 17.5587L11.367 13.6248ZM19.7415 12.4871L13.2594 18.8895C12.8823 19.2632 12.6144 19.7305 12.484 20.242L12.0139 22.0989C11.624 22.2833 11.2341 22.318 10.7695 22.2128C10.6311 22.1802 10.5718 22.023 10.63 21.895C11.1023 20.8516 10.4214 19.9687 9.4988 19.6032C8.44992 19.1856 7.05399 20.1618 5.8832 20.9785C5.23301 21.434 4.6531 21.8386 4.24014 21.9286C3.66354 22.0555 2.96392 21.7952 2.44882 21.5165C2.21927 21.3939 1.91395 21.5946 2.02268 21.8288C2.28847 22.4026 2.82553 23.0577 3.90077 23.19C4.9771 23.3212 5.84037 22.8137 6.70143 22.3061C7.34174 21.9286 7.98095 21.5512 8.70693 21.4395C8.80138 21.4254 8.86508 21.5349 8.82225 21.6195C8.55646 22.1444 8.43125 23.1054 9.06168 23.5913C9.99303 24.3093 12.6169 23.908 13.266 23.6868C13.3194 23.6817 13.3736 23.6719 13.4285 23.6575L15.4384 23.1618C15.9569 23.0329 16.4306 22.768 16.8091 22.395L23.2923 15.9936C23.751 15.5262 24.0052 14.8994 23.9999 14.2485C23.9947 13.5976 23.7305 12.9749 23.2644 12.5147C22.7982 12.0545 22.1675 11.7938 21.5085 11.7889C20.8494 11.7839 20.2147 12.0351 19.7415 12.4882" fill="#2B1354"/>
</svg>