<svg xmlns="http://www.w3.org/2000/svg" width="74" height="74" viewBox="0 0 74 74" fill="none">
                        <circle cx="37" cy="37" r="37" fill="#C4CD24" />
                        <path d="M34.1667 42.6667H39.8334C40.6125 42.6667 41.25 42.0292 41.25 41.25V34.1667H43.5025C44.7634 34.1667 45.4009 32.6367 44.5084 31.7442L38.0059 25.2417C37.8748 25.1104 37.7191 25.0062 37.5478 24.9351C37.3764 24.864 37.1927 24.8274 37.0071 24.8274C36.8216 24.8274 36.6379 24.864 36.4665 24.9351C36.2951 25.0062 36.1394 25.1104 36.0084 25.2417L29.5059 31.7442C28.6134 32.6367 29.2367 34.1667 30.4975 34.1667H32.75V41.25C32.75 42.0292 33.3875 42.6667 34.1667 42.6667ZM28.5 45.5H45.5C46.2792 45.5 46.9167 46.1375 46.9167 46.9167C46.9167 47.6959 46.2792 48.3334 45.5 48.3334H28.5C27.7209 48.3334 27.0834 47.6959 27.0834 46.9167C27.0834 46.1375 27.7209 45.5 28.5 45.5Z" fill="#2B1354" />
                    </svg>